<svg width="162" height="48" viewBox="0 0 162 48" fill="none" xmlns="http://www.w3.org/2000/svg">
<path d="M0 48L0.190174 10.3074L5.28685 13.1981L4.98257 39.0618L27.6323 26.0159L32.8811 29.0206L0 48Z" fill="#B096F5"/>
<path d="M11.0111 34.935L5.80032 37.9778L5.81933 0L38.3391 19.0365L33.2805 21.9842L11.0111 8.76704V34.935Z" fill="#B096F5"/>
<path d="M11.7147 16.1458V10.0792L44.5769 29.0586L11.7718 47.7528V41.8954L34.3835 29.2298L11.7147 16.1458Z" fill="#B096F5"/>
<path d="M68.9824 13.5469V39H63.8848L53.5488 24.0586H53.373V39H47.3965V13.5469H52.5645L62.7949 28.4883H63.0059V13.5469H68.9824ZM94.7207 26.2734C94.7207 34.6758 89.4473 39.3516 82.627 39.3516C75.7715 39.3516 70.5332 34.6406 70.5332 26.2734C70.5332 17.8711 75.7715 13.1953 82.627 13.1953C89.4473 13.1953 94.7207 17.8711 94.7207 26.2734ZM88.6035 26.2734C88.6035 21.2109 86.3535 18.4688 82.627 18.4688C78.9004 18.4688 76.6504 21.2109 76.6504 26.2734C76.6504 31.3359 78.9004 34.0781 82.627 34.0781C86.3535 34.0781 88.6035 31.3359 88.6035 26.2734ZM100.279 13.5469L106.08 32.3203H106.291L112.092 13.5469H118.771L110.158 39H102.213L93.5645 13.5469H100.279ZM121.025 39H114.557L123.205 13.5469H131.15L139.764 39H133.33L131.607 33.5508H122.748L121.025 39ZM124.189 28.9805H130.166L127.283 19.8398H127.072L124.189 28.9805Z" fill="#B096F5"/>
</svg>
