<svg width="16" height="16" viewBox="0 0 16 16" fill="currentColor" xmlns="http://www.w3.org/2000/svg">
<path d="M14.2857 0H1.71429C0.767857 0 0 0.767857 0 1.71429V14.2857C0 15.2321 0.767857 16 1.71429 16H14.2857C15.2321 16 16 15.2321 16 14.2857V1.71429C16 0.767857 15.2321 0 14.2857 0ZM13.1429 9C13.1429 9.23571 12.95 9.42857 12.7143 9.42857H9.42857V12.7143C9.42857 12.95 9.23571 13.1429 9 13.1429H7C6.76429 13.1429 6.57143 12.95 6.57143 12.7143V9.42857H3.28571C3.05 9.42857 2.85714 9.23571 2.85714 9V7C2.85714 6.76429 3.05 6.57143 3.28571 6.57143H6.57143V3.28571C6.57143 3.05 6.76429 2.85714 7 2.85714H9C9.23571 2.85714 9.42857 3.05 9.42857 3.28571V6.57143H12.7143C12.95 6.57143 13.1429 6.76429 13.1429 7V9Z" fill="currentColor"/>
</svg>
